<?xml version="1.0" standalone="no"?>
<!DOCTYPE svg PUBLIC "-//W3C//DTD SVG 20010904//EN"
 "http://www.w3.org/TR/2001/REC-SVG-20010904/DTD/svg10.dtd">
<svg version="1.0" xmlns="http://www.w3.org/2000/svg"
 width="256.000000pt" height="256.000000pt" viewBox="0 0 256.000000 256.000000"
 preserveAspectRatio="xMidYMid meet">

<g transform="translate(0.000000,256.000000) scale(0.100000,-0.100000)"
fill="#000000" stroke="none">
<path d="M30 1567 c0 -333 8 -434 44 -529 90 -239 273 -403 514 -459 141 -33
308 -18 430 37 29 13 55 24 57 24 18 0 137 96 193 154 77 82 130 176 162 291
21 74 23 106 28 433 l4 352 -171 0 -171 0 0 -321 c0 -367 -7 -411 -78 -504
-69 -91 -195 -155 -304 -155 -43 0 -148 32 -191 59 -49 30 -111 100 -143 162
l-29 54 -5 350 -5 350 -167 3 -168 2 0 -303z"/>
<path d="M1855 1509 c6 -9 3 -11 -8 -6 -21 8 -22 -6 -3 -22 8 -7 12 -21 9 -33
-5 -17 -3 -19 16 -13 39 12 89 -13 116 -58 l25 -42 0 33 c0 20 -8 39 -20 49
-11 10 -20 23 -20 31 0 7 -8 15 -17 19 -10 3 -27 14 -38 23 -26 23 -71 37 -60
19z"/>
<path d="M1651 1473 c-64 -54 -95 -123 -95 -208 0 -55 5 -79 23 -110 36 -63
69 -96 119 -124 39 -22 60 -26 127 -26 89 0 119 12 186 72 29 26 44 51 58 98
19 61 19 111 -1 99 -12 -7 -48 25 -48 43 0 7 -4 13 -10 13 -5 0 -10 -11 -10
-24 0 -14 -13 -38 -31 -55 -21 -21 -26 -31 -15 -31 8 0 19 -7 24 -17 13 -22
-16 -69 -69 -113 -23 -19 -52 -45 -66 -57 -24 -23 -43 -30 -43 -15 0 4 5 27
11 51 9 39 7 46 -13 68 -14 15 -22 37 -23 63 -1 30 -8 46 -33 69 -17 17 -37
31 -43 31 -6 0 -8 7 -5 17 4 10 4 14 0 10 -14 -14 -34 16 -34 50 0 24 10 47
30 73 34 43 35 46 16 53 -8 3 -33 -10 -55 -30z"/>
<path d="M1727 1340 c-4 -17 -2 -20 13 -15 14 4 20 -1 25 -25 4 -17 13 -30 22
-30 12 0 14 6 8 28 -13 54 -58 81 -68 42z"/>
<path d="M1808 1183 c18 -2 45 -2 60 0 15 2 0 4 -33 4 -33 0 -45 -2 -27 -4z"/>
<path d="M1833 1143 c9 -2 23 -2 30 0 6 3 -1 5 -18 5 -16 0 -22 -2 -12 -5z"/>
</g>
</svg>
