<?xml version="1.0" encoding="UTF-8"?>
<svg version="1.1" xmlns="http://www.w3.org/2000/svg" width="48" height="48">
<path d="M0 0 C2.25709039 2.98518407 3 4.24918828 3 8 C0.36 8 -2.28 8 -5 8 C-5 9.65 -5 11.3 -5 13 C-2.36 13 0.28 13 3 13 C2.84817368 15.65696068 2.52675976 17.44234524 0.66796875 19.41015625 C-4.34347478 23.59245584 -7.15999824 24.27114328 -13.51171875 24.234375 C-16.61758902 23.94182835 -18.5757777 22.93937784 -21 21 C-21.61875 21.495 -22.2375 21.99 -22.875 22.5 C-27.29272812 24.6205095 -31.17966573 24.69524052 -36 24 C-40.52201349 21.78010247 -42.88840897 19.540531 -45 15 C-45.3508213 12.05028871 -45.2844275 9.15248751 -45.1875 6.1875 C-45.17396484 5.39923828 -45.16042969 4.61097656 -45.14648438 3.79882812 C-45.11133456 1.86558831 -45.05753361 -0.06729682 -45 -2 C-42.36 -2 -39.72 -2 -37 -2 C-36.67 2.62 -36.34 7.24 -36 12 C-35.01 11.67 -34.02 11.34 -33 11 C-33.556875 9.7315625 -33.556875 9.7315625 -34.125 8.4375 C-35.18331387 4.27983836 -34.43280166 1.9800046 -33 -2 C-32.34 -2 -31.68 -2 -31 -2 C-28.00518135 2.40414508 -28.00518135 2.40414508 -27 5 C-27.75 8.4375 -27.75 8.4375 -29 11 C-28.01 11.33 -27.02 11.66 -26 12 C-25.67 7.38 -25.34 2.76 -25 -2 C-7.63227997 -5.43066075 -7.63227997 -5.43066075 0 0 Z M-34 15 C-34 15.33 -34 15.66 -34 16 C-32.02 16 -30.04 16 -28 16 C-28 15.67 -28 15.34 -28 15 C-29.98 15 -31.96 15 -34 15 Z " fill="#DF2628" transform="translate(45,14)"/>
<path d="M0 0 C3.76668324 1.43087556 6.48116593 3.3138001 8.9375 6.5625 C10 9 10 9 10 12 C7.36 12 4.72 12 2 12 C2 12.66 2 13.32 2 14 C1.01 14 0.02 14 -1 14 C-1.12375 14.639375 -1.2475 15.27875 -1.375 15.9375 C-1.58125 16.618125 -1.7875 17.29875 -2 18 C-2.66 18.33 -3.32 18.66 -4 19 C-7.07692308 13.58461538 -7.07692308 13.58461538 -6.6875 10.625 C-6.460625 10.08875 -6.23375 9.5525 -6 9 C-6.45375 9.495 -6.9075 9.99 -7.375 10.5 C-9 12 -9 12 -11 12 C-11 8.7 -11 5.4 -11 2 C-6.64736193 -0.17631903 -4.77274849 -0.48536425 0 0 Z " fill="#C7C0C4" transform="translate(38,10)"/>
<path d="M0 0 C0.66 0 1.32 0 2 0 C2.66 0.99 3.32 1.98 4 3 C7.5 3.41666667 7.5 3.41666667 11 3 C11.66 2.34 12.32 1.68 13 1 C15.68839385 0.73008094 18.29141936 0.91262643 21 1 C20.84817368 3.65696068 20.52675976 5.44234524 18.66796875 7.41015625 C13.69148052 11.5632839 10.81251152 12.32823811 4.48828125 12.30078125 C1.07955508 11.88873743 -0.68641826 10.46782052 -3 8 C-1.125 2.25 -1.125 2.25 0 0 Z " fill="#C3C2C6" transform="translate(27,26)"/>
<path d="M0 0 C0.66 0 1.32 0 2 0 C4.99481865 4.40414508 4.99481865 4.40414508 6 7 C5.25 10.4375 5.25 10.4375 4 13 C4.99 13.33 5.98 13.66 7 14 C7 14.99 7 15.98 7 17 C3.7 17 0.4 17 -3 17 C-2.67 15.68 -2.34 14.36 -2 13 C-1.34 13 -0.68 13 0 13 C-0.556875 11.7315625 -0.556875 11.7315625 -1.125 10.4375 C-2.18331387 6.27983836 -1.43280166 3.9800046 0 0 Z " fill="#C2C1C5" transform="translate(12,12)"/>
<path d="M0 0 C3.0109362 2.0072908 3.63016497 2.83884224 5 6 C5.66 4.68 6.32 3.36 7 2 C7.99 2 8.98 2 10 2 C9.42655063 4.86724686 9.1385485 5.8614515 7 8 C3.375 7.625 3.375 7.625 0 7 C-0.33 6.01 -0.66 5.02 -1 4 C-1.66 3.67 -2.32 3.34 -3 3 C-2.01 2.01 -1.02 1.02 0 0 Z " fill="#E03133" transform="translate(30,22)"/>
<path d="M0 0 C2.42716947 0.93954947 3.71970832 1.45810276 4.9375 3.8125 C5.02525652 6.88397835 3.71778904 8.52638378 2 11 C-0.51471866 8.48528134 -1.15955106 6.43183318 -2 3 C-1.34 2.01 -0.68 1.02 0 0 Z " fill="#ED877F" transform="translate(33,18)"/>
<path d="M0 0 C0.66 0 1.32 0 2 0 C6.09725159 5.90486258 6.09725159 5.90486258 5.8203125 9.0234375 C5.25 10.9375 5.25 10.9375 4 14 C3.67 14 3.34 14 3 14 C3 11.69 3 9.38 3 7 C2.01 7 1.02 7 0 7 C-0.33 7.99 -0.66 8.98 -1 10 C-2.31223496 6.06329512 -1.24296256 3.87511856 0 0 Z " fill="#BEBDC1" transform="translate(12,12)"/>
<path d="M0 0 C0.99 0 1.98 0 3 0 C3 2.64 3 5.28 3 8 C2.34 8 1.68 8 1 8 C-0.35439668 5.29120665 -0.06501451 2.99066732 0 0 Z " fill="#E3E2E4" transform="translate(12,19)"/>
</svg>
